#N canvas 37 48 569 514 10;
#N canvas 0 22 450 278 (subpatch) 0;
#X array \$0-pitches 4 float 3;
#A 0 53 60 64 67;
#X coords 0 90 4 20 200 140 1 0 0;
#X restore 299 37 graph;
#X obj 369 212 stripnote;
#X obj 369 292 array set \$0-pitches;
#X obj 427 249 f;
#X obj 471 249 + 1;
#X obj 471 272 % 4;
#X obj 369 233 t f b;
#X obj 59 177 metro 0.25 120 permin;
#X msg 59 141 tempo \$1 permin;
#X obj 24 161 tgl 15 0 empty empty empty 17 7 0 10 #fcfcfc #000000
#000000 0 1;
#X obj 59 215 bng 15 250 50 0 empty empty empty 17 7 0 10 #fcfcfc #000000
#000000;
#X obj 108 219 f;
#X obj 152 219 + 1;
#X obj 108 240 % 4;
#X floatatom 108 262 5 0 0 0 - - - 0;
#X msg 123 198 0;
#X obj 108 283 array get \$0-pitches;
#X floatatom 108 304 5 0 0 0 - - - 0;
#X obj 108 344 makenote;
#X msg 219 306 90;
#X obj 235 278 loadbang;
#X msg 254 307 100;
#X floatatom 64 56 5 0 0 0 - - - 0;
#X obj 64 75 - 127;
#X floatatom 64 114 5 0 0 0 - - - 0;
#X obj 64 95 * -4;
#X obj 121 382 noteout;
#X obj 64 33 ctlin 23 1;
#X obj 369 191 notein 33;
#X floatatom 219 329 5 0 0 0 - - - 0;
#X floatatom 254 329 5 0 0 0 - - - 0;
#X obj 226 388 ctlin 21 1;
#X obj 294 388 ctlin 22 1;
#X obj 294 423 - 127;
#X obj 294 443 / -127;
#X obj 294 464 * 200;
#X obj 226 423 - 127;
#X obj 226 443 * -1;
#X connect 1 0 6 0;
#X connect 3 0 4 0;
#X connect 3 0 2 1;
#X connect 4 0 5 0;
#X connect 5 0 3 1;
#X connect 6 0 2 0;
#X connect 6 1 3 0;
#X connect 7 0 10 0;
#X connect 7 0 11 0;
#X connect 8 0 7 0;
#X connect 9 0 7 0;
#X connect 9 0 15 0;
#X connect 11 0 12 0;
#X connect 11 0 13 0;
#X connect 12 0 11 1;
#X connect 13 0 14 0;
#X connect 14 0 16 0;
#X connect 15 0 11 1;
#X connect 16 0 17 0;
#X connect 17 0 18 0;
#X connect 18 0 26 0;
#X connect 18 1 26 1;
#X connect 19 0 29 0;
#X connect 20 0 19 0;
#X connect 20 0 21 0;
#X connect 21 0 30 0;
#X connect 22 0 23 0;
#X connect 23 0 25 0;
#X connect 24 0 8 0;
#X connect 25 0 24 0;
#X connect 27 0 22 0;
#X connect 28 0 1 0;
#X connect 28 1 1 1;
#X connect 29 0 18 1;
#X connect 30 0 18 2;
#X connect 31 0 36 0;
#X connect 32 0 33 0;
#X connect 33 0 34 0;
#X connect 34 0 35 0;
#X connect 35 0 30 0;
#X connect 36 0 37 0;
#X connect 37 0 29 0;
